<?xml version="1.0" encoding="utf-8"?>
<!-- Generator: Adobe Illustrator 25.0.1, SVG Export Plug-In . SVG Version: 6.00 Build 0)  -->
<svg version="1.1" id="logo" xmlns="http://www.w3.org/2000/svg" xmlns:xlink="http://www.w3.org/1999/xlink" x="0px" y="0px"
	 viewBox="0 0 294 72.67" style="enable-background:new 0 0 294 72.67;" xml:space="preserve">
<style type="text/css">
	.st0{fill:#DC0A2D;}
</style>
<path class="st0" d="M86.22,15.17"/>
<path class="st0" d="M104.11,67.67l-6-17.28v17.28H86.22V14.94h12.44L98.5,32.39l5.89-17.44h12.56v2.22
	c-1.85,5.52-6.08,18.14-7.78,23.56c-1.12,3.5,8.2,23.41,7.56,26.94H104.11z"/>
<polygon class="st0" points="136.17,11.67 140.06,4.61 146.67,4.61 142.78,11.67 "/>
<polygon class="st0" points="137.94,25.11 137.94,36.67 149.94,36.67 149.06,46.67 137.94,46.67 137.94,58.33 149.94,58.33 
	149.06,67.89 126.11,67.89 126.11,29.5 130.83,15.17 149.94,15.17 149,25.11 "/>
<polygon class="st0" points="171.11,25.17 171.11,36.72 183.11,36.72 182.17,46.67 171.11,46.67 171.11,67.89 159.22,67.89 
	159.22,29.44 163.89,15.17 183.11,15.17 182.17,25.11 "/>
<path class="st0" d="M192.33,15.17h11.44v42.67h14.89c0.77,1.48-3.36,8.7-3.89,10.06h-22.44V15.17z"/>
<polygon class="st0" points="237.33,25.22 237.33,36.72 249.39,36.72 248.39,46.61 237.33,46.61 237.33,58.39 249.39,58.39 
	248.39,67.89 225.44,67.89 225.44,29.5 230.17,15.17 249.39,15.17 248.39,25.11 "/>
<path class="st0" d="M258.06,15.17c-0.33,14.39-0.18,12.49,5.22,25.5c0.96,1.53-4.7,12.22-5.22,13.72c0,0,0,13.5,0,13.5h12.5V57.5
	l2.61-6.11l2.61,6v10.5h12.06V54.67c-0.5-1.52-6.31-12.5-5.28-14c5.56-13.1,5.58-11.06,5.28-25.5h-12.06v9.44l-2.61,6.89
	c-4.18-7.66-3.17-8.1-3.28-16.33H258.06z"/>
<path class="st0" d="M6.56,15.61h27.28l1.83,1.83v24.94L18.06,54.83L18,67.89H6.56V15.61z M18.06,42.44l5.78-3.5V25.67h-5.78V42.44z
	"/>
<path class="st0" d="M51.11,15.17h21.11l3.28,3.72v35.67l-4.22,13.33h-22.5l-2.89-3.44V30.11L51.11,15.17z M57.83,58.28h5.83V25.67
	h-5.83V58.28z"/>
</svg>
